<?xml version="1.0" encoding="UTF-8"?>
<svg version="1.1" xmlns="http://www.w3.org/2000/svg" width="500" height="500">
<path d="M0 0 C86.46 0 172.92 0 262 0 C262 19.84528638 262 19.84528638 260.4375 26.875 C260.26331543 27.69669678 260.08913086 28.51839355 259.90966797 29.36499023 C256.91706356 42.63186583 252.04698675 55.360386 245 67 C244.45988281 67.95132813 243.91976562 68.90265625 243.36328125 69.8828125 C240.33841673 75.1415358 240.33841673 75.1415358 239 77 C238.34 77 237.68 77 237 77 C236.6596875 78.051875 236.6596875 78.051875 236.3125 79.125 C234.66158712 82.74128535 232.7091165 85.08769976 230 88 C229.34 88 228.68 88 228 88 C228 88.66 228 89.32 228 90 C227.34 90 226.68 90 226 90 C225.63648438 90.86238281 225.63648438 90.86238281 225.265625 91.7421875 C218.83808153 103.20860765 202.2557483 112.01828933 190.9375 118.0625 C190.22327881 118.44470703 189.50905762 118.82691406 188.77319336 119.22070312 C185.20117183 121.06793523 182.04283586 122.48774984 178 123 C178 125.97 178 128.94 178 132 C179.12921875 132.07347656 179.12921875 132.07347656 180.28125 132.1484375 C195.91837252 133.24910875 211.07786816 135.02595605 226 140 C226 140.66 226 141.32 226 142 C226.66 142 227.32 142 228 142 C227.63512906 144.44386851 227.44763564 145.65614659 225.44677734 147.19311523 C180.43349712 168.22772037 89.81726346 164.67274141 43 150 C40.20134983 148.88161473 37.45878549 147.75649905 35 146 C34.67 145.01 34.34 144.02 34 143 C37.38100408 137.92849388 43.28596659 137.42289168 49 136 C53.77244828 135.07495542 58.55615582 134.38419524 63.375 133.75 C64.59316406 133.57726562 65.81132812 133.40453125 67.06640625 133.2265625 C72.75029703 132.44556987 78.2611623 131.76299785 84 132 C84 129.03 84 126.06 84 123 C82.2675 122.5359375 82.2675 122.5359375 80.5 122.0625 C50.46761807 111.95726457 26.40371996 85.35773144 12.25 58 C7.55054539 48.22122725 4.10965747 38.31320754 1.6875 27.75 C1.51581299 27.04915283 1.34412598 26.34830566 1.16723633 25.6262207 C-0.68552578 16.89977883 0 9.35748367 0 0 Z " fill="#3B3036" transform="translate(121,274)"/>
<path d="M0 0 C8.95208725 8.12957775 17.49818599 17.43388176 23.95996094 27.68359375 C23.95996094 28.67359375 23.95996094 29.66359375 23.95996094 30.68359375 C24.61996094 30.68359375 25.27996094 30.68359375 25.95996094 30.68359375 C33.73774099 45.00923646 41.00067486 59.12709637 45.95996094 74.68359375 C46.53617187 76.45476562 46.53617187 76.45476562 47.12402344 78.26171875 C51.17717063 91.56594236 54.32133064 105.76145332 54.95996094 119.68359375 C56.93996094 120.34359375 58.91996094 121.00359375 60.95996094 121.68359375 C60.95996094 122.34359375 60.95996094 123.00359375 60.95996094 123.68359375 C61.61996094 123.68359375 62.27996094 123.68359375 62.95996094 123.68359375 C66.58758314 129.91412773 67.53954714 134.43522233 67.46166992 141.58447266 C67.4697744 143.02017357 67.4697744 143.02017357 67.4780426 144.48487854 C67.49048013 147.62695896 67.47407414 150.76811431 67.45605469 153.91015625 C67.45620977 156.10395353 67.4577002 158.29775109 67.46046448 160.49154663 C67.46184616 165.07944921 67.44932674 169.66703829 67.42651367 174.25488281 C67.39809648 180.13051923 67.40087871 186.00563636 67.41360378 191.88131142 C67.42056285 196.40752588 67.41276956 200.93362062 67.40034676 205.45981979 C67.39583687 207.62632157 67.39549141 209.79283622 67.39941216 211.95933914 C67.40232741 214.98699503 67.385803 218.01393817 67.36401367 221.04150391 C67.37076614 222.37887856 67.37076614 222.37887856 67.37765503 223.74327087 C67.31724528 228.8036549 66.76412397 232.29903282 63.95996094 236.68359375 C59.64964441 240.76705151 56.03862128 242.47913536 50.14746094 243.05859375 C45.46676565 242.90817443 41.69331281 241.51464994 37.95996094 238.68359375 C32.90311675 232.53377171 32.81037877 225.71406139 32.81469727 218.10473633 C32.80965935 216.82563385 32.80965935 216.82563385 32.80451965 215.52069092 C32.79503523 212.70648737 32.79306757 209.89234353 32.79199219 207.078125 C32.78877704 205.11382523 32.78541277 203.14952571 32.78190613 201.18522644 C32.77592054 197.06708217 32.77406556 192.94895886 32.7746582 188.83081055 C32.7747596 183.57325904 32.7611278 178.31584327 32.74388599 173.05832386 C32.73272357 168.99950045 32.73074032 164.94070936 32.73126793 160.88187218 C32.73009342 158.94474509 32.72570158 157.00761702 32.71793556 155.07050514 C32.6277179 130.23521879 32.6277179 130.23521879 37.39746094 124.18359375 C39.95996094 121.68359375 39.95996094 121.68359375 42.95996094 119.68359375 C40.57602839 85.48649236 28.79144837 50.47443244 6.72949219 24.0078125 C4.95996094 21.68359375 4.95996094 21.68359375 4.95996094 19.68359375 C4.29996094 19.68359375 3.63996094 19.68359375 2.95996094 19.68359375 C2.95996094 19.02359375 2.95996094 18.36359375 2.95996094 17.68359375 C2.29996094 17.68359375 1.63996094 17.68359375 0.95996094 17.68359375 C-0.72736183 15.70098949 -2.39369964 13.70035955 -4.04003906 11.68359375 C-4.70003906 11.35359375 -5.36003906 11.02359375 -6.04003906 10.68359375 C-6.04003906 10.02359375 -6.04003906 9.36359375 -6.04003906 8.68359375 C-6.70003906 8.68359375 -7.36003906 8.68359375 -8.04003906 8.68359375 C-8.04003906 8.02359375 -8.04003906 7.36359375 -8.04003906 6.68359375 C-8.58144531 6.43867187 -9.12285156 6.19375 -9.68066406 5.94140625 C-12.58914765 4.39085705 -15.12557093 2.49946267 -17.79003906 0.55859375 C-32.95444832 -10.14786551 -50.88689231 -17.57530132 -69.04003906 -21.31640625 C-69.92046875 -21.49816406 -70.80089844 -21.67992188 -71.70800781 -21.8671875 C-81.71912499 -23.71691437 -91.90766102 -24.4307487 -102.04003906 -25.31640625 C-102.23194824 -24.72617676 -102.42385742 -24.13594727 -102.62158203 -23.52783203 C-104.26305462 -18.53200155 -106.07752094 -13.69522705 -108.17285156 -8.87109375 C-110.84549139 -0.99764128 -110.21977695 7.48412264 -110.04003906 15.68359375 C-110.02328125 16.56789062 -110.00652344 17.4521875 -109.98925781 18.36328125 C-109.25039594 31.57835365 -105.03714915 44.85526729 -100.99291992 57.38476562 C-95.62508059 74.24972391 -91.90608009 90.98436791 -91.04003906 108.68359375 C-90.98074219 109.87082031 -90.92144531 111.05804688 -90.86035156 112.28125 C-90.4868745 129.02547166 -93.08578359 146.77226351 -101.04003906 161.68359375 C-101.70003906 161.35359375 -102.36003906 161.02359375 -103.04003906 160.68359375 C-102.90726563 160.01714844 -102.77449219 159.35070312 -102.63769531 158.6640625 C-102.37279297 157.28154297 -102.37279297 157.28154297 -102.10253906 155.87109375 C-101.92851562 154.97777344 -101.75449219 154.08445312 -101.57519531 153.1640625 C-100.12113768 143.7073811 -99.85771839 134.30195534 -99.85253906 124.74609375 C-99.84029297 123.56080078 -99.82804688 122.37550781 -99.81542969 121.15429688 C-99.7971293 110.03375904 -101.41908124 99.78144485 -104.72753906 89.18359375 C-104.98519043 88.33756592 -105.2428418 87.49153809 -105.50830078 86.61987305 C-107.39456668 80.5162864 -109.50062908 74.50555561 -111.66503906 68.49609375 C-117.02328871 53.59697604 -120.2179982 38.92559451 -120.29003906 23.05859375 C-120.31066406 21.94613281 -120.33128906 20.83367187 -120.35253906 19.6875 C-120.40383097 8.67256206 -118.28193352 -0.96401018 -113.10253906 -10.69140625 C-112.76802734 -11.35011719 -112.43351563 -12.00882813 -112.08886719 -12.6875 C-109.98827228 -16.75917337 -107.64652633 -20.5495365 -105.04003906 -24.31640625 C-119.82195413 -24.84749302 -134.78548411 -23.28274049 -149.04003906 -19.31640625 C-150.255625 -18.99027344 -151.47121094 -18.66414063 -152.72363281 -18.328125 C-168.33615045 -13.93117019 -182.59009068 -7.073386 -195.45019531 2.8125 C-198.04003906 4.68359375 -198.04003906 4.68359375 -200.04003906 4.68359375 C-200.04003906 5.34359375 -200.04003906 6.00359375 -200.04003906 6.68359375 C-201.54394531 8.12890625 -201.54394531 8.12890625 -203.60253906 9.80859375 C-207.35760519 12.97672237 -210.49269564 16.37789611 -213.59472656 20.1796875 C-214.07167969 20.67597656 -214.54863281 21.17226562 -215.04003906 21.68359375 C-215.70003906 21.68359375 -216.36003906 21.68359375 -217.04003906 21.68359375 C-217.28753906 22.22886719 -217.53503906 22.77414063 -217.79003906 23.3359375 C-219.30304548 26.17755269 -221.14121349 28.64538087 -223.04003906 31.24609375 C-241.65796554 57.65011494 -250.30524509 88.937845 -254.04003906 120.68359375 C-252.72003906 121.01359375 -251.40003906 121.34359375 -250.04003906 121.68359375 C-250.04003906 122.34359375 -250.04003906 123.00359375 -250.04003906 123.68359375 C-249.05003906 124.01359375 -248.06003906 124.34359375 -247.04003906 124.68359375 C-243.56004771 129.81422007 -243.6117862 134.4838813 -243.65185547 140.44921875 C-243.64659851 141.41581421 -243.64134155 142.38240967 -243.63592529 143.3782959 C-243.62275495 146.56356106 -243.63145307 149.74832377 -243.64160156 152.93359375 C-243.63957998 155.15267024 -243.63666784 157.37174609 -243.63290405 159.59082031 C-243.62848471 164.23769466 -243.63489937 168.88439581 -243.64892578 173.53125 C-243.66601725 179.48315213 -243.65617401 185.4346484 -243.63820839 191.38653564 C-243.62736014 195.9676417 -243.63082172 200.54865177 -243.63859177 205.12976074 C-243.64059088 207.32417855 -243.63814464 209.51860511 -243.63115311 211.7130127 C-243.62352169 214.78156572 -243.635167 217.84946437 -243.65185547 220.91796875 C-243.64578278 221.82204468 -243.63971008 222.72612061 -243.63345337 223.65759277 C-243.69175891 229.45399605 -244.47488894 233.87128073 -248.54003906 238.328125 C-254.03525255 242.60695008 -258.25516813 243.31203806 -265.04003906 242.68359375 C-270.71480019 240.71925336 -274.35404237 237.05558713 -277.04003906 231.68359375 C-277.13981871 230.32889435 -277.17939257 228.96949156 -277.18721008 227.61114502 C-277.19794304 226.3326619 -277.19794304 226.3326619 -277.20889282 225.02835083 C-277.21158173 224.09119232 -277.21427063 223.15403381 -277.21704102 222.18847656 C-277.22361221 221.20295807 -277.23018341 220.21743958 -277.23695374 219.20205688 C-277.2567155 215.93027679 -277.26835603 212.65854267 -277.27832031 209.38671875 C-277.28239584 208.27072044 -277.28647137 207.15472214 -277.29067039 206.0049057 C-277.31154386 200.09767338 -277.32583981 194.19046437 -277.33520508 188.28320312 C-277.34626947 182.17870542 -277.38066641 176.07457223 -277.42037678 169.9702034 C-277.4465127 165.27931029 -277.45489427 160.58850439 -277.45848656 155.89754486 C-277.46336067 153.64728078 -277.47499798 151.39702079 -277.49352455 149.1468277 C-277.51785 145.9963539 -277.51696266 142.84682786 -277.51000977 139.69628906 C-277.52281982 138.76722748 -277.53562988 137.83816589 -277.54882812 136.88095093 C-277.50408014 131.31565172 -276.80434647 128.06783828 -273.04003906 123.68359375 C-267.77688117 119.68359375 -267.77688117 119.68359375 -265.04003906 119.68359375 C-265.00136719 118.60658203 -265.00136719 118.60658203 -264.96191406 117.5078125 C-264.08433215 101.49194258 -260.01359084 85.88116478 -255.04003906 70.68359375 C-254.82653809 70.0282666 -254.61303711 69.37293945 -254.39306641 68.69775391 C-248.59497712 51.28616541 -239.51341056 35.66857142 -229.04003906 20.68359375 C-228.38003906 19.69359375 -227.72003906 18.70359375 -227.04003906 17.68359375 C-226.38003906 17.68359375 -225.72003906 17.68359375 -225.04003906 17.68359375 C-224.86214844 17.0184375 -224.68425781 16.35328125 -224.50097656 15.66796875 C-222.36041388 11.2952685 -219.11798486 8.318125 -215.66503906 4.93359375 C-214.94695068 4.22420654 -214.2288623 3.51481934 -213.48901367 2.78393555 C-205.19490556 -5.28508499 -196.40069619 -12.08940806 -186.04003906 -17.31640625 C-184.7977031 -17.96195396 -183.55553022 -18.60781556 -182.31347656 -19.25390625 C-125.79157894 -48.39990988 -48.35655599 -42.66921383 0 0 Z " fill="#453B40" transform="translate(355.0400390625,105.31640625)"/>
<path d="M0 0 C0.33 0 0.66 0 1 0 C1 2.64 1 5.28 1 8 C3.475 8.495 3.475 8.495 6 9 C6 9.66 6 10.32 6 11 C6.99 11.33 7.98 11.66 9 12 C12.47999135 17.13062632 12.42825286 21.80028755 12.38818359 27.765625 C12.39344055 28.73222046 12.39869751 29.69881592 12.40411377 30.69470215 C12.41728411 33.87996731 12.40858599 37.06473002 12.3984375 40.25 C12.40045908 42.46907649 12.40337122 44.68815234 12.40713501 46.90722656 C12.41155435 51.55410091 12.40513969 56.20080206 12.39111328 60.84765625 C12.37402181 66.79955838 12.38386505 72.75105465 12.40183067 78.70294189 C12.41267892 83.28404795 12.40921735 87.86505802 12.4014473 92.44616699 C12.39944818 94.6405848 12.40189442 96.83501136 12.40888596 99.02941895 C12.41651737 102.09797197 12.40487206 105.16587062 12.38818359 108.234375 C12.39425629 109.13845093 12.40032898 110.04252686 12.40658569 110.97399902 C12.34828016 116.7704023 11.56515012 121.18768698 7.5 125.64453125 C2.00478652 129.92335633 -2.21512907 130.62844431 -9 130 C-14.67476113 128.03565961 -18.31400331 124.37199338 -21 119 C-21.09977965 117.6453006 -21.13935351 116.28589781 -21.14717102 114.92755127 C-21.15432632 114.07522919 -21.16148163 113.2229071 -21.16885376 112.34475708 C-21.17154266 111.40759857 -21.17423157 110.47044006 -21.17700195 109.50488281 C-21.18357315 108.51936432 -21.19014435 107.53384583 -21.19691467 106.51846313 C-21.21667644 103.24668304 -21.22831697 99.97494892 -21.23828125 96.703125 C-21.24439454 95.02912754 -21.24439454 95.02912754 -21.25063133 93.32131195 C-21.27150479 87.41407963 -21.28580075 81.50687062 -21.29516602 75.59960938 C-21.30623041 69.49511167 -21.34062735 63.39097848 -21.38033772 57.28660965 C-21.40647364 52.59571654 -21.41485521 47.90491064 -21.41844749 43.21395111 C-21.4233216 40.96368703 -21.43495892 38.71342704 -21.45348549 36.46323395 C-21.47781094 33.31276015 -21.47692359 30.16323411 -21.4699707 27.01269531 C-21.48278076 26.08363373 -21.49559082 25.15457214 -21.50878906 24.19735718 C-21.46392576 18.61771581 -20.72054769 15.4314477 -17 11 C-14.67962414 8.75447497 -13.5903188 8.07027605 -10.375 7.6875 C-8 8 -8 8 -6 10 C-5.34 9.67 -4.68 9.34 -4 9 C-4 9.66 -4 10.32 -4 11 C-3.01 11 -2.02 11 -1 11 C-1.2475 9.88625 -1.2475 9.88625 -1.5 8.75 C-2 6 -2 6 -2 2 C-1.34 2 -0.68 2 0 2 C0 1.34 0 0.68 0 0 Z " fill="#3E3439" transform="translate(99,218)"/>
<path d="M0 0 C13.11539697 3.53464599 22.87740652 11.48177194 29.875 23.0625 C36.08789767 34.40103825 37.67754541 48.26799838 35 61 C32.83255934 67.5185575 30.10008204 73.48609657 26 79 C25.34 79.99 24.68 80.98 24 82 C23.34 82 22.68 82 22 82 C21.67 82.99 21.34 83.98 21 85 C20.34 85 19.68 85 19 85 C19 85.66 19 86.32 19 87 C16.79799468 88.32421964 14.58938174 89.63426729 12.375 90.9375 C11.75753906 91.31068359 11.14007813 91.68386719 10.50390625 92.06835938 C9.89160156 92.42607422 9.27929688 92.78378906 8.6484375 93.15234375 C8.09333496 93.48226318 7.53823242 93.81218262 6.96630859 94.15209961 C4.37230753 95.27066997 1.78188543 95.56778783 -1 96 C-1.02312154 83.63081285 -1.04091412 71.26163081 -1.05181217 58.89242649 C-1.05704141 53.14954938 -1.0641398 47.40668699 -1.07543945 41.66381836 C-1.08626687 36.12660005 -1.09227652 30.58939596 -1.09487724 25.05216789 C-1.09673176 22.93455723 -1.10035286 20.81694738 -1.10573006 18.69934273 C-1.11293856 15.74428726 -1.11399102 12.78929129 -1.11352539 9.83422852 C-1.11712067 8.94950363 -1.12071594 8.06477875 -1.12442017 7.15324402 C-1.11405216 1.11405216 -1.11405216 1.11405216 0 0 Z " fill="#3B3036" transform="translate(424,238)"/>
<path d="M0 0 C0 31.35 0 62.7 0 95 C-5.098882 94.15018633 -7.41931453 93.4972111 -11.6875 91.0625 C-12.61949219 90.53785156 -13.55148438 90.01320313 -14.51171875 89.47265625 C-16.37476894 88.37003471 -18.19870618 87.20086255 -20 86 C-20 85.34 -20 84.68 -20 84 C-20.66 84 -21.32 84 -22 84 C-29.52396555 77.58135928 -35.26962404 66.62207537 -36.3515625 56.8125 C-37.48599123 40.99532221 -36.5914419 27.76466101 -25.93359375 15.08984375 C-20.22011977 8.9146749 -9.11105122 -3.03701707 0 0 Z " fill="#41373D" transform="translate(77,239)"/>
<path d="M0 0 C1.49249268 0.01571045 1.49249268 0.01571045 3.01513672 0.03173828 C4.6296875 0.04140625 4.6296875 0.04140625 6.27685547 0.05126953 C7.40478516 0.06802734 8.53271484 0.08478516 9.69482422 0.10205078 C11.39832031 0.11558594 11.39832031 0.11558594 13.13623047 0.12939453 C15.94763721 0.1530198 18.7586272 0.18596065 21.56982422 0.22705078 C21.56982422 0.55705078 21.56982422 0.88705078 21.56982422 1.22705078 C19.91982422 1.22705078 18.26982422 1.22705078 16.56982422 1.22705078 C16.39966797 1.76072266 16.22951172 2.29439453 16.05419922 2.84423828 C14.4093774 7.90119048 12.55582063 12.79417531 10.43701172 17.67236328 C7.76437189 25.54581575 8.39008633 34.02757967 8.56982422 42.22705078 C8.58658203 43.11134766 8.60333984 43.99564453 8.62060547 44.90673828 C9.35946734 58.12181068 13.57271413 71.39872432 17.61694336 83.92822266 C22.98478269 100.79318094 26.70378319 117.52782494 27.56982422 135.22705078 C27.62912109 136.41427734 27.68841797 137.60150391 27.74951172 138.82470703 C28.12298878 155.56892869 25.5240797 173.31572054 17.56982422 188.22705078 C16.90982422 187.89705078 16.24982422 187.56705078 15.56982422 187.22705078 C15.70259766 186.56060547 15.83537109 185.89416016 15.97216797 185.20751953 C16.14876953 184.28583984 16.32537109 183.36416016 16.50732422 182.41455078 C16.68134766 181.52123047 16.85537109 180.62791016 17.03466797 179.70751953 C18.4887256 170.25083813 18.75214489 160.84541237 18.75732422 151.28955078 C18.77569336 149.51161133 18.77569336 149.51161133 18.79443359 147.69775391 C18.81273399 136.57721607 17.19078204 126.32490188 13.88232422 115.72705078 C13.62467285 114.88102295 13.36702148 114.03499512 13.1015625 113.16333008 C11.2152966 107.05974343 9.1092342 101.04901264 6.94482422 95.03955078 C1.58657457 80.14043307 -1.60813492 65.46905154 -1.68017578 49.60205078 C-1.70080078 48.48958984 -1.72142578 47.37712891 -1.74267578 46.23095703 C-1.79396769 35.21601909 0.32792976 25.57944685 5.50732422 15.85205078 C5.84183594 15.19333984 6.17634766 14.53462891 6.52099609 13.85595703 C8.64733637 9.7343803 10.96119639 6.13999253 13.56982422 2.22705078 C7.62982422 2.22705078 1.68982422 2.22705078 -4.43017578 2.22705078 C-2.43017578 0.22705078 -2.43017578 0.22705078 0 0 Z " fill="#493F44" transform="translate(236.43017578125,78.77294921875)"/>
<path d="M0 0 C0.66 0.33 1.32 0.66 2 1 C1.72285156 1.59167969 1.44570312 2.18335938 1.16015625 2.79296875 C0.61681641 3.97826172 0.61681641 3.97826172 0.0625 5.1875 C-0.29714844 5.96480469 -0.65679687 6.74210938 -1.02734375 7.54296875 C-6.93453022 22.46513858 -1.82401014 39.98907687 2.56396484 54.56787109 C9.31814144 77.07826979 15.90067679 105.6493882 4.8125 128.0625 C4.214375 129.031875 3.61625 130.00125 3 131 C2.34 131 1.68 131 1 131 C1.144375 130.25621094 1.28875 129.51242187 1.4375 128.74609375 C4.3426214 111.65833105 4.49146008 94.53766211 -1 78 C-1.31098633 77.05382812 -1.62197266 76.10765625 -1.94238281 75.1328125 C-3.33388598 70.91756967 -4.72957301 66.70483448 -6.18164062 62.51000977 C-11.76395229 46.29952524 -15.04629512 26.70904715 -7.51171875 10.58203125 C-5.29611674 6.79776012 -2.89661361 3.29477355 0 0 Z " fill="#453B3F" transform="translate(212,134)"/>
<path d="M0 0 C0.66 0 1.32 0 2 0 C1.54244153 3.0198859 0.87960456 5.23767989 -0.51171875 7.984375 C-2.65321285 12.92563846 -2.53186478 17.87457964 -2.5 23.1875 C-2.49718018 24.2381665 -2.49436035 25.28883301 -2.49145508 26.37133789 C-2.24855885 38.34729603 0.71150909 49.27128478 4.53125 60.54296875 C11.81794917 82.26677842 14.5244046 109.19843908 4.36328125 130.41796875 C3.91339844 131.27003906 3.46351563 132.12210938 3 133 C2.67 133 2.34 133 2 133 C2.14238837 130.95809019 2.28907028 128.91647955 2.4375 126.875 C2.51871094 125.73804688 2.59992188 124.60109375 2.68359375 123.4296875 C3 120 3 120 3.51171875 117.04296875 C6.70842399 97.12110169 0.01217945 78.11535332 -6.44921875 59.5390625 C-10.11837646 48.93731353 -11.34250413 39.22108782 -11 28 C-10.98324219 27.236875 -10.96648437 26.47375 -10.94921875 25.6875 C-10.38516339 16.66261429 -5.70224633 6.98275077 0 0 Z " fill="#494145" transform="translate(293,127)"/>
<path d="M0 0 C0.33 0.66 0.66 1.32 1 2 C1.66 2 2.32 2 3 2 C8.28162432 27.12617395 8.39295406 56.76772751 -4 80 C-4.66 79.67 -5.32 79.34 -6 79 C-5.86722656 78.33355469 -5.73445312 77.66710937 -5.59765625 76.98046875 C-5.42105469 76.05878906 -5.24445313 75.13710938 -5.0625 74.1875 C-4.80146484 72.84751953 -4.80146484 72.84751953 -4.53515625 71.48046875 C-3.08109862 62.02378735 -2.81767933 52.61836159 -2.8125 43.0625 C-2.80025391 41.87720703 -2.78800781 40.69191406 -2.77539062 39.47070312 C-2.75809589 28.96126775 -4.0099364 19.21350291 -7.4140625 9.25390625 C-8.06280494 6.75841034 -8.09962867 4.56770263 -8 2 C-5.33333333 1.33333333 -2.66666667 0.66666667 0 0 Z " fill="#43393F" transform="translate(258,187)"/>
<path d="M0 0 C0.33 0.66 0.66 1.32 1 2 C1.66 2 2.32 2 3 2 C3.66666667 3.33333333 4.33333333 4.66666667 5 6 C5.495 6.9075 5.99 7.815 6.5 8.75 C8.92157074 13.9967366 10.36384114 19.17854182 10 25 C6.65367153 26.11544282 5.36086161 25.67217232 2 25 C1.01 25.33 0.02 25.66 -1 26 C-2.01618866 23.33855352 -3.01291841 20.67223438 -4 18 C-4.28617188 17.25621094 -4.57234375 16.51242188 -4.8671875 15.74609375 C-6.74713212 10.59862634 -7.2987594 6.47725572 -7 1 C-3.535 0.505 -3.535 0.505 0 0 Z " fill="#443B40" transform="translate(250,164)"/>
<path d="M0 0 C4.15050444 3.90635712 8.02455804 8.11250427 11 13 C11 13.99 11 14.98 11 16 C11.66 16 12.32 16 13 16 C14.19733988 18.11997834 15.38298713 20.24513676 16.5625 22.375 C16.90474609 22.97828125 17.24699219 23.5815625 17.59960938 24.203125 C18.46127095 25.76978241 19.23718183 27.38290862 20 29 C19.67 29.66 19.34 30.32 19 31 C18.21625 30.195625 17.4325 29.39125 16.625 28.5625 C13.37090653 25.32946262 13.37090653 25.32946262 9 25 C8.67 24.67 8.34 24.34 8 24 C7.34 24.66 6.68 25.32 6 26 C4.37145746 23.7524911 2.74709026 21.50215838 1.125 19.25 C0.66480469 18.61578125 0.20460938 17.9815625 -0.26953125 17.328125 C-2.43662041 14.31304443 -4.49857822 11.41702887 -6 8 C-5.195625 7.79375 -4.39125 7.5875 -3.5625 7.375 C-2.716875 6.92125 -1.87125 6.4675 -1 6 C-0.10169161 2.94727535 -0.10169161 2.94727535 0 0 Z " fill="#514A4E" transform="translate(368,120)"/>
<path d="M0 0 C4.71394473 -0.02485249 9.4278507 -0.04293186 14.1418457 -0.05493164 C15.74308945 -0.05993805 17.34432867 -0.06674515 18.94555664 -0.07543945 C21.25668458 -0.08766764 23.56775169 -0.09326536 25.87890625 -0.09765625 C26.58648575 -0.10281754 27.29406525 -0.10797882 28.02308655 -0.11329651 C32.46408171 -0.11378966 36.63302685 0.27923744 41 1 C41 1.66 41 2.32 41 3 C43.475 3.495 43.475 3.495 46 4 C45.34 4.33 44.68 4.66 44 5 C43.01 4.67 42.02 4.34 41 4 C41.020625 4.763125 41.04125 5.52625 41.0625 6.3125 C41 9 41 9 40 12 C37.68715544 11.85973717 35.37472409 11.71264442 33.0625 11.5625 C31.13083984 11.44068359 31.13083984 11.44068359 29.16015625 11.31640625 C26 11 26 11 25 10 C23.32115762 9.6068352 21.63149955 9.25914548 19.9375 8.9375 C19.01839844 8.76089844 18.09929687 8.58429688 17.15234375 8.40234375 C16.44207031 8.26957031 15.73179687 8.13679688 15 8 C15.8125 6.0625 15.8125 6.0625 17 4 C17.99 3.67 18.98 3.34 20 3 C20.33 2.34 20.66 1.68 21 1 C14.07 1 7.14 1 0 1 C0 0.67 0 0.34 0 0 Z " fill="#41393E" transform="translate(241,70)"/>
<path d="M0 0 C3.09333567 5.18692994 2.38254376 10.8821478 2.375 16.75 C2.37411377 17.96324951 2.37322754 19.17649902 2.37231445 20.42651367 C2.21722984 32.2389226 0.5733646 42.44414327 -5 53 C-5.33 53 -5.66 53 -6 53 C-5.85761163 50.95809019 -5.71092972 48.91647955 -5.5625 46.875 C-5.48128906 45.73804688 -5.40007812 44.60109375 -5.31640625 43.4296875 C-5 40 -5 40 -4.4765625 37.07421875 C-3.89966169 33.35273566 -3.80908484 29.693751 -3.8125 25.9375 C-3.81185547 25.19959229 -3.81121094 24.46168457 -3.81054688 23.70141602 C-3.87417478 16.99662566 -4.71705149 10.58656602 -6 4 C-4.02 2.68 -2.04 1.36 0 0 Z " fill="#73686C" transform="translate(301,207)"/>
<path d="M0 0 C-0.474375 0.350625 -0.94875 0.70125 -1.4375 1.0625 C-3.67873825 3.84163543 -3.67117658 6.5144717 -4 10 C-3.01 10.33 -2.02 10.66 -1 11 C-3.89514194 12.29322032 -6.79123484 13.58429741 -9.6875 14.875 C-10.50412109 15.23980469 -11.32074219 15.60460937 -12.16210938 15.98046875 C-16.08196222 17.72615221 -19.9969644 19.45096382 -24 21 C-24.33 18.69 -24.66 16.38 -25 14 C-23.68 13.34 -22.36 12.68 -21 12 C-21.66 12 -22.32 12 -23 12 C-23 11.34 -23 10.68 -23 10 C-24.32 10.33 -25.64 10.66 -27 11 C-25.66904592 8.33809184 -24.36611778 8.07514848 -21.66796875 6.87109375 C-20.34635742 6.27844727 -20.34635742 6.27844727 -18.99804688 5.67382812 C-17.60682617 5.0618457 -17.60682617 5.0618457 -16.1875 4.4375 C-15.27162109 4.02564453 -14.35574219 3.61378906 -13.41210938 3.18945312 C-2.94079359 -1.4703968 -2.94079359 -1.4703968 0 0 Z M-21 8 C-21 9.32 -21 10.64 -21 12 C-20.01 12.33 -19.02 12.66 -18 13 C-17.67 11.35 -17.34 9.7 -17 8 C-18.32 8 -19.64 8 -21 8 Z " fill="#50474D" transform="translate(196,78)"/>
<path d="M0 0 C6.03774412 6.03774412 7.55104643 20.36081312 8.375 28.875 C8 32 8 32 6.1875 34 C4 35 4 35 1 34 C0.00097656 31.99047852 0.00097656 31.99047852 -0.859375 29.37890625 C-1.17003906 28.44369141 -1.48070312 27.50847656 -1.80078125 26.54492188 C-2.11402344 25.56072266 -2.42726563 24.57652344 -2.75 23.5625 C-3.07871094 22.58216797 -3.40742188 21.60183594 -3.74609375 20.59179688 C-6.13477132 13.26954264 -6.13477132 13.26954264 -5 11 C-3.515 11.99 -3.515 11.99 -2 13 C-1.26167392 8.67551867 -0.60825035 4.34464536 0 0 Z " fill="#50454B" transform="translate(293,176)"/>
<path d="M0 0 C0.99 1.32 1.98 2.64 3 4 C2.34 4.66 1.68 5.32 1 6 C1.75150023 9.27773504 1.75150023 9.27773504 5 11 C3.38405168 13.04119788 1.7143618 15.04072937 0 17 C-0.66 17 -1.32 17 -2 17 C-2.2475 17.53625 -2.495 18.0725 -2.75 18.625 C-4.29696975 21.56424252 -6.13014369 24.25754408 -8 27 C-8.66 26.01 -9.32 25.02 -10 24 C-9.67 23.01 -9.34 22.02 -9 21 C-8.34 21 -7.68 21 -7 21 C-6.34 19.35 -5.68 17.7 -5 16 C-5.433125 16.495 -5.86625 16.99 -6.3125 17.5 C-8 19 -8 19 -11 19 C-11 19.99 -11 20.98 -11 22 C-12.98 22 -14.96 22 -17 22 C-15.7580393 18.56072421 -14.44259716 15.74792181 -12 13 C-11.34 13 -10.68 13 -10 13 C-9.75507813 12.26394531 -9.51015625 11.52789062 -9.2578125 10.76953125 C-7.86372322 7.69993716 -6.3060804 6.00094747 -3.875 3.6875 C-3.15054688 2.99011719 -2.42609375 2.29273437 -1.6796875 1.57421875 C-1.12539062 1.05472656 -0.57109375 0.53523438 0 0 Z " fill="#4F484D" transform="translate(140,110)"/>
<path d="M0 0 C1.32 0 2.64 0 4 0 C4.47763183 14.13436407 4.66301262 29.58063472 -3 42 C-3.66 42 -4.32 42 -5 42 C-4.86722656 41.29101562 -4.73445312 40.58203125 -4.59765625 39.8515625 C-2.98774733 30.14510434 -2.62464072 20.54109927 -2.42993164 10.71337891 C-2.4014917 9.61687012 -2.37305176 8.52036133 -2.34375 7.390625 C-2.32505859 6.40094727 -2.30636719 5.41126953 -2.28710938 4.39160156 C-2 2 -2 2 0 0 Z " fill="#4F464A" transform="translate(218,223)"/>
<path d="M0 0 C0.33 0 0.66 0 1 0 C2.90440463 22.68281947 3.00950214 46.3611957 -8 67 C-8.66 66.67 -9.32 66.34 -10 66 C-9.86722656 65.33355469 -9.73445312 64.66710937 -9.59765625 63.98046875 C-9.42105469 63.05878906 -9.24445313 62.13710938 -9.0625 61.1875 C-8.88847656 60.29417969 -8.71445313 59.40085937 -8.53515625 58.48046875 C-7.09961789 49.14423025 -6.7604422 39.74135332 -6.4375 30.3125 C-6.39431641 29.12205078 -6.35113281 27.93160156 -6.30664062 26.70507812 C-6.20176321 23.80346966 -6.09959804 20.90179365 -6 18 C-5.67 18 -5.34 18 -5 18 C-4.67 24.6 -4.34 31.2 -4 38 C-2.68 37.34 -1.36 36.68 0 36 C0 24.12 0 12.24 0 0 Z " fill="#8D8589" transform="translate(262,200)"/>
<path d="M0 0 C0.99 0 1.98 0 3 0 C5.01644403 5.79727658 5.19209473 10.89565625 5 17 C5 17.99 5 18.98 5 20 C1.66666667 23 1.66666667 23 -1 23 C-3.81552726 16.21256822 -4.3689719 10.31110994 -4 3 C-3.01 2.67 -2.02 2.34 -1 2 C-0.67 1.34 -0.34 0.68 0 0 Z " fill="#473F44" transform="translate(209,180)"/>
<path d="M0 0 C1.6875 2.0625 1.6875 2.0625 3 4 C2.01 4.33 1.02 4.66 0 5 C-0.268125 5.721875 -0.53625 6.44375 -0.8125 7.1875 C-2.40072594 10.94908776 -4.61485923 13.68254422 -8 16 C-10.875 15.875 -10.875 15.875 -13 15 C-13.625 13.125 -13.625 13.125 -14 11 C-13.34 10.34 -12.68 9.68 -12 9 C-12.185625 8.360625 -12.37125 7.72125 -12.5625 7.0625 C-13 5 -13 5 -12 3.4375 C-8.14366325 0.66575796 -4.64951007 -1.54983669 0 0 Z " fill="#4E4449" transform="translate(154,104)"/>
<path d="M0 0 C0.66 0.66 1.32 1.32 2 2 C2.66 1.67 3.32 1.34 4 1 C6.5625 1.75 6.5625 1.75 9 3 C10 6 10 6 9.5 7.875 C8.8793405 10.51280286 9.34952865 12.3981146 10 15 C4.91996889 14.52374708 0.92461029 12.12742382 -3 9 C-4.6875 6.4375 -4.6875 6.4375 -5 4 C-2.83783784 0 -2.83783784 0 0 0 Z " fill="#3C3438" transform="translate(331,91)"/>
<path d="M0 0 C0.185625 0.9590625 0.185625 0.9590625 0.375 1.9375 C0.684375 2.9584375 0.684375 2.9584375 1 4 C1.66 4.33 2.32 4.66 3 5 C3 4.34 3 3.68 3 3 C5.31 3.33 7.62 3.66 10 4 C9.68806536 5.72926874 9.37542638 7.45841044 9.0625 9.1875 C8.88847656 10.15042969 8.71445313 11.11335937 8.53515625 12.10546875 C8.0476265 14.74239972 7.53328895 17.3719905 7 20 C4.9754262 18.06745228 3.57894208 16.36841312 2 14 C1.54625 14.495 1.0925 14.99 0.625 15.5 C-1 17 -1 17 -3 17 C-2.48517081 11.147205 -1.54642808 5.6702363 0 0 Z " fill="#524A4E" transform="translate(98,182)"/>
<path d="M0 0 C0.99 0 1.98 0 3 0 C3 0.66 3 1.32 3 2 C3.99 2.33 4.98 2.66 6 3 C5.49202991 7.3177458 4.80317221 11.03302114 3 15 C2.34 14.34 1.68 13.68 1 13 C0.05125 13.515625 -0.8975 14.03125 -1.875 14.5625 C-2.90625 15.036875 -3.9375 15.51125 -5 16 C-5.66 15.67 -6.32 15.34 -7 15 C-6.25 8.25 -6.25 8.25 -4 6 C-2.68252676 5.30251417 -1.35085807 4.63040043 0 4 C-0.66 4 -1.32 4 -2 4 C-1.34 2.68 -0.68 1.36 0 0 Z " fill="#3F363A" transform="translate(113,151)"/>
<path d="M0 0 C0.66 0.33 1.32 0.66 2 1 C1.67 2.65 1.34 4.3 1 6 C1.78375 6.12375 2.5675 6.2475 3.375 6.375 C6 7 6 7 8 9 C6.71283353 10.00578589 5.42011342 11.00446798 4.125 12 C3.40570313 12.556875 2.68640625 13.11375 1.9453125 13.6875 C0 15 0 15 -2 15 C-2 15.66 -2 16.32 -2 17 C-2.66 17 -3.32 17 -4 17 C-3.835 16.4225 -3.67 15.845 -3.5 15.25 C-2.85537969 12.73335631 -2.85537969 12.73335631 -3 9 C-3.928125 9.165 -4.85625 9.33 -5.8125 9.5 C-9 10 -9 10 -12 10 C-8.04 6.7 -4.08 3.4 0 0 Z " fill="#473D43" transform="translate(157,95)"/>
<path d="M0 0 C2.31 0.66 4.62 1.32 7 2 C6.01 2.66 5.02 3.32 4 4 C4 3.34 4 2.68 4 2 C3.01 2.33 2.02 2.66 1 3 C0.67 33.69 0.34 64.38 0 96 C-0.33 96 -0.66 96 -1 96 C-1.02312154 83.63081285 -1.04091412 71.26163081 -1.05181217 58.89242649 C-1.05704141 53.14954938 -1.0641398 47.40668699 -1.07543945 41.66381836 C-1.08626687 36.12660005 -1.09227652 30.58939596 -1.09487724 25.05216789 C-1.09673176 22.93455723 -1.10035286 20.81694738 -1.10573006 18.69934273 C-1.11293856 15.74428726 -1.11399102 12.78929129 -1.11352539 9.83422852 C-1.11712067 8.94950363 -1.12071594 8.06477875 -1.12442017 7.15324402 C-1.11405216 1.11405216 -1.11405216 1.11405216 0 0 Z " fill="#D3CACC" transform="translate(424,238)"/>
<path d="M0 0 C0.99 0 1.98 0 3 0 C4.66666667 1.66666667 6.33333333 3.33333333 8 5 C9.3242287 5.36784131 10.65613912 5.71202981 12 6 C12.33 6.99 12.66 7.98 13 9 C12.34 9 11.68 9 11 9 C11 9.99 11 10.98 11 12 C8 14 8 14 5.8125 13.625 C5.214375 13.41875 4.61625 13.2125 4 13 C4 12.34 4 11.68 4 11 C3.34 11 2.68 11 2 11 C2 10.34 2 9.68 2 9 C1.34 9 0.68 9 0 9 C-1.125 7.3125 -1.125 7.3125 -2 5 C-1.125 2.25 -1.125 2.25 0 0 Z " fill="#483E44" transform="translate(356,114)"/>
<path d="M0 0 C4.92908146 3.87792288 8.5423711 7.76116833 12 13 C8.21213403 12.4739075 5.82847776 11.61896089 3 9 C3 8.34 3 7.68 3 7 C2.01 7.33 1.02 7.66 0 8 C0 9.32 0 10.64 0 12 C-2.96175123 11.38722388 -4.38058783 10.74627478 -7 9 C-7 8.34 -7 7.68 -7 7 C-7.66 7 -8.32 7 -9 7 C-9 6.34 -9 5.68 -9 5 C-8.4225 5.20625 -7.845 5.4125 -7.25 5.625 C-4.98571676 6.17681347 -4.98571676 6.17681347 -2.8125 5.3125 C-0.5632134 3.68370625 -0.53311571 2.64403854 0 0 Z " fill="#52474E" transform="translate(356,107)"/>
<path d="M0 0 C2.31 0 4.62 0 7 0 C7.8723412 2.99480917 8.10829766 5.63575911 8.0625 8.75 C8.05347656 9.54921875 8.04445312 10.3484375 8.03515625 11.171875 C8.02355469 11.77515625 8.01195312 12.3784375 8 13 C7.38125 13.268125 6.7625 13.53625 6.125 13.8125 C3.7004767 14.95556848 3.7004767 14.95556848 2 18 C0.59545452 11.88019467 -0.23268915 6.28260706 0 0 Z " fill="#534A4D" transform="translate(213,210)"/>
<path d="M0 0 C0.33 0 0.66 0 1 0 C1.33 4.95 1.66 9.9 2 15 C2.99 14.01 3.98 13.02 5 12 C5.50506566 20.92282662 3.41375001 29.22339284 -1 37 C-1.66 37 -2.32 37 -3 37 C-2.86722656 36.25621094 -2.73445312 35.51242187 -2.59765625 34.74609375 C-0.73181592 23.21056997 -0.37080194 11.66368046 0 0 Z " fill="#7E777A" transform="translate(216,228)"/>
<path d="M0 0 C0.66 0 1.32 0 2 0 C1.5429877 3.01628117 0.87497753 5.25004494 -0.5 8 C-2.61206654 12.83329754 -2.56298271 17.73267722 -2.6875 22.9375 C-2.72166016 23.90751953 -2.75582031 24.87753906 -2.79101562 25.87695312 C-2.87288574 28.25118637 -2.94223078 30.62507877 -3 33 C-3.33 33 -3.66 33 -4 33 C-4.33 28.38 -4.66 23.76 -5 19 C-6.98 19.99 -6.98 19.99 -9 21 C-9.33 21.99 -9.66 22.98 -10 24 C-9.26049037 15.31076181 -5.46480092 6.82170728 0 0 Z " fill="#918B8E" transform="translate(293,127)"/>
<path d="M0 0 C0.33 0 0.66 0 1 0 C1.0272415 1.41655793 1.04650467 2.83327045 1.0625 4.25 C1.07410156 5.03890625 1.08570312 5.8278125 1.09765625 6.640625 C1.00385306 8.90691002 0.63241063 10.8288895 0 13 C-5.75 13.125 -5.75 13.125 -8 12 C-8 12.66 -8 13.32 -8 14 C-8.66 14 -9.32 14 -10 14 C-10.33 14.99 -10.66 15.98 -11 17 C-10.25 9.375 -10.25 9.375 -8 6 C-7.34 6 -6.68 6 -6 6 C-5.67 5.01 -5.34 4.02 -5 3 C-3.68 3.66 -2.36 4.32 -1 5 C-0.67 3.35 -0.34 1.7 0 0 Z " fill="#3D3539" transform="translate(109,173)"/>
<path d="M0 0 C2.31625061 1.11777771 4.62784605 2.24374092 6.9375 3.375 C7.59685547 3.69210938 8.25621094 4.00921875 8.93554688 4.3359375 C13.88671875 6.7734375 13.88671875 6.7734375 15 9 C13.35 9.33 11.7 9.66 10 10 C9.67 9.01 9.34 8.02 9 7 C6.85432087 8.72855926 6.85432087 8.72855926 5 11 C5.13641377 13.21858253 5.13641377 13.21858253 6 15 C3.08482708 13.92598892 1.22189824 13.22189824 -1 11 C-1 10.01 -1 9.02 -1 8 C0.32 7.67 1.64 7.34 3 7 C3 6.01 3 5.02 3 4 C1.68 3.67 0.36 3.34 -1 3 C-0.67 2.01 -0.34 1.02 0 0 Z " fill="#494247" transform="translate(322,84)"/>
<path d="M0 0 C0.33 0 0.66 0 1 0 C1.07347656 1.28197266 1.07347656 1.28197266 1.1484375 2.58984375 C1.22320312 3.69457031 1.29796875 4.79929688 1.375 5.9375 C1.44460938 7.03964844 1.51421875 8.14179688 1.5859375 9.27734375 C1.72257812 10.17582031 1.85921875 11.07429687 2 12 C2.66 12.33 3.32 12.66 4 13 C3.50793415 20.38098781 1.93451121 27.17864563 -1 34 C-1.99 34.495 -1.99 34.495 -3 35 C-2.85761163 32.95809019 -2.71092972 30.91647955 -2.5625 28.875 C-2.48128906 27.73804688 -2.40007812 26.60109375 -2.31640625 25.4296875 C-2 22 -2 22 -1.5 19.09375 C-0.8827287 15.27438386 -0.65037936 11.4847471 -0.4375 7.625 C-0.39431641 6.88894531 -0.35113281 6.15289062 -0.30664062 5.39453125 C-0.20156201 3.59651932 -0.10037907 1.79828042 0 0 Z " fill="#766E73" transform="translate(298,225)"/>
<path d="M0 0 C0.96752984 2.90258953 1.08308032 4.56243496 0.9921875 7.5625 C0.97542969 8.44164062 0.95867187 9.32078125 0.94140625 10.2265625 C0.89713055 12.07572427 0.84504443 13.92471551 0.78515625 15.7734375 C0.77097656 16.65257812 0.75679687 17.53171875 0.7421875 18.4375 C0.7201123 19.24058594 0.69803711 20.04367188 0.67529297 20.87109375 C0.84735808 23.06782859 0.84735808 23.06782859 2.26611328 24.78515625 C4.19313464 26.38254554 4.19313464 26.38254554 8 26 C7.67 25.34 7.34 24.68 7 24 C5.71312989 20.13938967 5.86242382 17.05849717 6 13 C6.33 13 6.66 13 7 13 C7.33820166 14.5823006 7.67035939 16.16589375 8 17.75 C8.185625 18.63171875 8.37125 19.5134375 8.5625 20.421875 C9 23 9 23 9 27 C8.34 27 7.68 27 7 27 C6.34 28.32 5.68 29.64 5 31 C4.67 31 4.34 31 4 31 C3.67 32.98 3.34 34.96 3 37 C-1.30588692 32.69411308 -1.12378384 25.74160023 -1.23046875 19.94140625 C-1.2265335 17.81505957 -1.21205803 15.6887085 -1.1875 13.5625 C-1.18685547 12.47517578 -1.18621094 11.38785156 -1.18554688 10.26757812 C-1.14082166 2.28164333 -1.14082166 2.28164333 0 0 Z " fill="#6E686C" transform="translate(202,153)"/>
<path d="M0 0 C-0.66 0 -1.32 0 -2 0 C-1.67 0.99 -1.34 1.98 -1 3 C-1.99 4.485 -1.99 4.485 -3 6 C-0.525 6.99 -0.525 6.99 2 8 C2 8.99 2 9.98 2 11 C-2.55105375 10.45820789 -6.06386006 9.37999159 -10 7 C-10.33 6.01 -10.66 5.02 -11 4 C-8.14317358 -0.28523962 -4.97227354 -1.84158279 0 0 Z " fill="#4A4246" transform="translate(166,413)"/>
<path d="M0 0 C0.66 0.33 1.32 0.66 2 1 C1.72285156 1.59167969 1.44570312 2.18335938 1.16015625 2.79296875 C0.61681641 3.97826172 0.61681641 3.97826172 0.0625 5.1875 C-0.29714844 5.96480469 -0.65679687 6.74210938 -1.02734375 7.54296875 C-3.12167382 12.83346519 -3.27517226 18.19312296 -3.5625 23.8125 C-3.60568359 24.60076172 -3.64886719 25.38902344 -3.69335938 26.20117188 C-3.79878321 28.13394215 -3.89983094 30.06695026 -4 32 C-4.33 32 -4.66 32 -5 32 C-5.33 27.71 -5.66 23.42 -6 19 C-6.99 18.67 -7.98 18.34 -9 18 C-8.39686658 14.26057281 -7.32946122 11.25293224 -5.625 7.875 C-5.20476562 7.02679688 -4.78453125 6.17859375 -4.3515625 5.3046875 C-3.08935088 3.15236132 -1.8491495 1.65450219 0 0 Z " fill="#72696E" transform="translate(212,134)"/>
<path d="M0 0 C0.66 0 1.32 0 2 0 C1.34 1.65 0.68 3.3 0 5 C-0.66 5 -1.32 5 -2 5 C-2 7.31 -2 9.62 -2 12 C-4.25 12.75 -4.25 12.75 -7 13 C-9.3125 11.0625 -9.3125 11.0625 -11 9 C-10.34 7.68 -9.68 6.36 -9 5 C-7.35 5.33 -5.7 5.66 -4 6 C-4 5.01 -4 4.02 -4 3 C-3.01 3 -2.02 3 -1 3 C-0.67 2.01 -0.34 1.02 0 0 Z " fill="#393136" transform="translate(133,126)"/>
<path d="M0 0 C0.33 0 0.66 0 1 0 C1.05797565 3.93743833 1.09358789 7.87476719 1.125 11.8125 C1.14175781 12.93205078 1.15851563 14.05160156 1.17578125 15.20507812 C1.18222656 16.27822266 1.18867188 17.35136719 1.1953125 18.45703125 C1.20578613 19.44678955 1.21625977 20.43654785 1.22705078 21.45629883 C1 24 1 24 -1 27 C-1.33801152 24.45887768 -1.67053379 21.91723254 -2 19.375 C-2.09539062 18.66214844 -2.19078125 17.94929688 -2.2890625 17.21484375 C-2.81606101 13.11178391 -3.10466984 9.14754258 -3 5 C-2.01 5.33 -1.02 5.66 0 6 C0 4.02 0 2.04 0 0 Z " fill="#342A2F" transform="translate(301,214)"/>
<path d="M0 0 C1.875 0.3125 1.875 0.3125 4 1 C4.66 1.99 5.32 2.98 6 4 C6.99 4.33 7.98 4.66 9 5 C10.75 7.9375 10.75 7.9375 12 11 C11.67 11.66 11.34 12.32 11 13 C10.21625 12.195625 9.4325 11.39125 8.625 10.5625 C5.37090653 7.32946262 5.37090653 7.32946262 1 7 C1 6.34 1 5.68 1 5 C0.34 5 -0.32 5 -1 5 C-0.67 3.35 -0.34 1.7 0 0 Z " fill="#443941" transform="translate(376,138)"/>
<path d="M0 0 C1.49249268 0.01571045 1.49249268 0.01571045 3.01513672 0.03173828 C4.6296875 0.04140625 4.6296875 0.04140625 6.27685547 0.05126953 C7.40478516 0.06802734 8.53271484 0.08478516 9.69482422 0.10205078 C11.39832031 0.11558594 11.39832031 0.11558594 13.13623047 0.12939453 C15.94763721 0.1530198 18.7586272 0.18596065 21.56982422 0.22705078 C21.56982422 0.55705078 21.56982422 0.88705078 21.56982422 1.22705078 C19.91982422 1.22705078 18.26982422 1.22705078 16.56982422 1.22705078 C16.37646484 1.85353516 16.18310547 2.48001953 15.98388672 3.12548828 C15.72349609 3.94275391 15.46310547 4.76001953 15.19482422 5.60205078 C14.81197266 6.82021484 14.81197266 6.82021484 14.42138672 8.06298828 C13.56982422 10.22705078 13.56982422 10.22705078 11.56982422 12.22705078 C11.56982422 11.23705078 11.56982422 10.24705078 11.56982422 9.22705078 C10.90982422 8.89705078 10.24982422 8.56705078 9.56982422 8.22705078 C10.88982422 6.24705078 12.20982422 4.26705078 13.56982422 2.22705078 C7.62982422 2.22705078 1.68982422 2.22705078 -4.43017578 2.22705078 C-2.43017578 0.22705078 -2.43017578 0.22705078 0 0 Z " fill="#A9A2A7" transform="translate(236.43017578125,78.77294921875)"/>
<path d="M0 0 C2.31 0.66 4.62 1.32 7 2 C7 2.66 7 3.32 7 4 C7.66 4 8.32 4 9 4 C8.6875 5.875 8.6875 5.875 8 8 C5 10 5 10 2.8125 9.625 C2.214375 9.41875 1.61625 9.2125 1 9 C1 8.01 1 7.02 1 6 C0.68578929 3.99690671 0.3548954 1.99628664 0 0 Z " fill="#554E50" transform="translate(340,412)"/>
<path d="M0 0 C1.6875 2.0625 1.6875 2.0625 3 4 C2.01 4.33 1.02 4.66 0 5 C-1.20882096 7.00016466 -1.20882096 7.00016466 -2 9 C-2.5775 8.360625 -3.155 7.72125 -3.75 7.0625 C-5.98062401 5.01776132 -7.07436391 4.41794801 -10 4 C-4.7704918 -1.59016393 -4.7704918 -1.59016393 0 0 Z " fill="#382F33" transform="translate(154,104)"/>
<path d="M0 0 C0.33 0 0.66 0 1 0 C1 3.3 1 6.6 1 10 C1.66 10 2.32 10 3 10 C3.33 9.01 3.66 8.02 4 7 C3.49228528 12.96564796 1.61407872 17.63809899 -1 23 C-1.66 22.67 -2.32 22.34 -3 22 C-2.80083984 21.00033203 -2.80083984 21.00033203 -2.59765625 19.98046875 C-1.32379789 13.33222984 -0.49610861 6.74968813 0 0 Z " fill="#8A8689" transform="translate(255,244)"/>
<path d="M0 0 C2.31 0.33 4.62 0.66 7 1 C7.33 1.99 7.66 2.98 8 4 C7.34 4 6.68 4 6 4 C6 4.99 6 5.98 6 7 C4.35 7.66 2.7 8.32 1 9 C0.34 6.69 -0.32 4.38 -1 2 C-0.67 1.67 -0.34 1.34 0 1 C0 0.67 0 0.34 0 0 Z " fill="#382D34" transform="translate(361,119)"/>
<path d="M0 0 C2.97 0.495 2.97 0.495 6 1 C6 1.99 6 2.98 6 4 C6.99 4.33 7.98 4.66 9 5 C9 5.99 9 6.98 9 8 C8.360625 8.12375 7.72125 8.2475 7.0625 8.375 C6.381875 8.58125 5.70125 8.7875 5 9 C4.67 9.66 4.34 10.32 4 11 C4 10.34 4 9.68 4 9 C3.34 8.67 2.68 8.34 2 8 C0.6250851 5.09740189 0 3.23861295 0 0 Z " fill="#362E32" transform="translate(316,83)"/>
<path d="M0 0 C2.31 0.66 4.62 1.32 7 2 C6.01 2.66 5.02 3.32 4 4 C4 3.34 4 2.68 4 2 C3.01 2.33 2.02 2.66 1 3 C0.67 13.23 0.34 23.46 0 34 C-0.33 34 -0.66 34 -1 34 C-1.02465288 29.31860746 -1.04283739 24.63725241 -1.05493164 19.95581055 C-1.05997157 18.36205386 -1.0668035 16.76830181 -1.07543945 15.17456055 C-1.08751999 12.88849747 -1.09323155 10.60249533 -1.09765625 8.31640625 C-1.10281754 7.59973282 -1.10797882 6.88305939 -1.11329651 6.14466858 C-1.11349263 4.42936328 -1.06192007 2.71418734 -1 1 C-0.67 0.67 -0.34 0.34 0 0 Z " fill="#C2B6BC" transform="translate(424,238)"/>
<path d="M0 0 C2.31 0.66 4.62 1.32 7 2 C6.62971996 4.68453027 6.12340935 5.8677757 4.25 7.875 C2 9 2 9 -0.75 8.1875 C-1.4925 7.795625 -2.235 7.40375 -3 7 C-2 4 -2 4 0 2 C0 1.34 0 0.68 0 0 Z " fill="#372D34" transform="translate(349,105)"/>
<path d="M0 0 C-0.474375 0.350625 -0.94875 0.70125 -1.4375 1.0625 C-3.67873825 3.84163543 -3.67117658 6.5144717 -4 10 C-4.33 8.68 -4.66 7.36 -5 6 C-6.1446875 5.814375 -6.1446875 5.814375 -7.3125 5.625 C-10 5 -10 5 -13 3 C-11.21189234 2.30329584 -9.41937948 1.61788811 -7.625 0.9375 C-6.62726563 0.55464844 -5.62953125 0.17179687 -4.6015625 -0.22265625 C-2 -1 -2 -1 0 0 Z " fill="#5D5359" transform="translate(196,78)"/>
<path d="M0 0 C0 3 0 6 0 9 C-3.33333333 12 -3.33333333 12 -6 12 C-6 10.35 -6 8.7 -6 7 C-5.34 7 -4.68 7 -4 7 C-3.87625 6.030625 -3.7525 5.06125 -3.625 4.0625 C-3.41875 3.051875 -3.2125 2.04125 -3 1 C-1 0 -1 0 0 0 Z " fill="#40323C" transform="translate(214,191)"/>
<path d="M0 0 C0.33 1.32 0.66 2.64 1 4 C1.66 4 2.32 4 3 4 C3.33 2.68 3.66 1.36 4 0 C4.56561146 5.65611463 2.71391278 9.22642128 0 14 C-0.66 14 -1.32 14 -2 14 C-1.34 9.38 -0.68 4.76 0 0 Z " fill="#8A8588" transform="translate(215,251)"/>
<path d="M0 0 C2.60186108 2.60186108 2.29810177 3.82354355 2.3125 7.4375 C2.33763672 8.88962891 2.33763672 8.88962891 2.36328125 10.37109375 C1.9533659 13.33747041 1.32042696 14.19386292 -1 16 C-1 15.34 -1 14.68 -1 14 C-1.66 14 -2.32 14 -3 14 C-2.53915076 11.31171277 -1.98521323 8.96433779 -0.9375 6.4375 C0.23931939 3.81303173 0.23931939 3.81303173 0 0 Z " fill="#362D32" transform="translate(291,174)"/>
<path d="M0 0 C0.66 0 1.32 0 2 0 C1.67 2.97 1.34 5.94 1 9 C0.01 8.67 -0.98 8.34 -2 8 C-2.66 9.32 -3.32 10.64 -4 12 C-4.66 12 -5.32 12 -6 12 C-4.68448876 7.39571066 -2.90803514 3.81679612 0 0 Z " fill="#726A6F" transform="translate(246,88)"/>
<path d="M0 0 C0.99 0 1.98 0 3 0 C3 2.31 3 4.62 3 7 C2.34 7 1.68 7 1 7 C1 7.99 1 8.98 1 10 C0.34 10 -0.32 10 -1 10 C-1.125 2.25 -1.125 2.25 0 0 Z " fill="#40393D" transform="translate(257,244)"/>
<path d="M0 0 C1.32 0 2.64 0 4 0 C3.67 1.65 3.34 3.3 3 5 C1.68 4.34 0.36 3.68 -1 3 C-0.67 2.01 -0.34 1.02 0 0 Z M-2 2 C-2 3.32 -2 4.64 -2 6 C-3.32 6 -4.64 6 -6 6 C-6 5.01 -6 4.02 -6 3 C-4 2 -4 2 -2 2 Z M-2 4 C-1.34 4 -0.68 4 0 4 C-0.33 4.66 -0.66 5.32 -1 6 C-1.33 5.34 -1.66 4.68 -2 4 Z " fill="#362D32" transform="translate(175,86)"/>
<path d="M0 0 C0.33 0 0.66 0 1 0 C0.44854729 5.23880078 -0.42922093 9.97350697 -2 15 C-2.66 14.01 -3.32 13.02 -4 12 C-3.34 12 -2.68 12 -2 12 C-2.48484276 7.35413108 -2.48484276 7.35413108 -4 3 C-3.34 2.34 -2.68 1.68 -2 1 C-1.34 1.33 -0.68 1.66 0 2 C0 1.34 0 0.68 0 0 Z " fill="#645D60" transform="translate(380,298)"/>
<path d="M0 0 C0.66 0.66 1.32 1.32 2 2 C2.66 1.34 3.32 0.68 4 0 C3.71517632 1.41805831 3.42181856 2.83440379 3.125 4.25 C2.88136719 5.43335938 2.88136719 5.43335938 2.6328125 6.640625 C2.00849925 8.96831144 1.15161458 10.89031952 0 13 C-0.33 13 -0.66 13 -1 13 C-0.67 8.71 -0.34 4.42 0 0 Z " fill="#9D9A9B" transform="translate(296,247)"/>
<path d="M0 0 C0.598125 0.639375 1.19625 1.27875 1.8125 1.9375 C3.90810337 4.20310389 3.90810337 4.20310389 7 5 C6.67 5.99 6.34 6.98 6 8 C3.69 7.34 1.38 6.68 -1 6 C-1.625 4.125 -1.625 4.125 -2 2 C-1.34 1.34 -0.68 0.68 0 0 Z " fill="#372E33" transform="translate(159,95)"/>
<path d="M0 0 C0.66 0.33 1.32 0.66 2 1 C0.68 3.97 -0.64 6.94 -2 10 C-2.99 10 -3.98 10 -5 10 C-5 5.88168014 -2.91010261 2.91010261 0 0 Z " fill="#878386" transform="translate(212,134)"/>
<path d="M0 0 C2.97 1.98 2.97 1.98 6 4 C4 6 4 6 0.875 6.125 C-0.548125 6.063125 -0.548125 6.063125 -2 6 C-1.34 4.02 -0.68 2.04 0 0 Z " fill="#585155" transform="translate(341,95)"/>
<path d="M0 0 C0.66 0 1.32 0 2 0 C2.12375 0.639375 2.2475 1.27875 2.375 1.9375 C2.684375 2.9584375 2.684375 2.9584375 3 4 C3.66 4.33 4.32 4.66 5 5 C4.34 6.65 3.68 8.3 3 10 C2.34 9.01 1.68 8.02 1 7 C0.01 6.34 -0.98 5.68 -2 5 C-1.34 5 -0.68 5 0 5 C0 3.35 0 1.7 0 0 Z " fill="#52494F" transform="translate(90,220)"/>
<path d="M0 0 C0.33 1.32 0.66 2.64 1 4 C0.34 4 -0.32 4 -1 4 C-1.33 4.66 -1.66 5.32 -2 6 C-4.3140622 6.73075648 -6.64828869 7.40138258 -9 8 C-6.14723863 5.06799526 -3.34920216 2.35684596 0 0 Z " fill="#767174" transform="translate(154,98)"/>
<path d="M0 0 C0.82638376 2.89234315 1 4.88742431 1 8 C0.01 8.33 -0.98 8.66 -2 9 C-2.33 9.99 -2.66 10.98 -3 12 C-2.49202991 7.6822542 -1.80317221 3.96697886 0 0 Z " fill="#7D7477" transform="translate(286,139)"/>
<path d="M0 0 C1.485 0.99 1.485 0.99 3 2 C2.34 2 1.68 2 1 2 C1 4.97 1 7.94 1 11 C3.31 11 5.62 11 8 11 C8 11.33 8 11.66 8 12 C3.545 12.495 3.545 12.495 -1 13 C-0.67 8.71 -0.34 4.42 0 0 Z " fill="#787377" transform="translate(298,395)"/>
<path d="M0 0 C0.8125 1.625 0.8125 1.625 1 4 C-0.46818136 6.24609835 -2.15852858 8.02378677 -4 10 C-4.33 8.68 -4.66 7.36 -5 6 C-4.34 6 -3.68 6 -3 6 C-3 5.01 -3 4.02 -3 3 C-2.34 3 -1.68 3 -1 3 C-0.67 2.01 -0.34 1.02 0 0 Z " fill="#64575F" transform="translate(357,349)"/>
<path d="M0 0 C0.66 0.33 1.32 0.66 2 1 C1.67 3.31 1.34 5.62 1 8 C0.67 7.01 0.34 6.02 0 5 C-0.99 5 -1.98 5 -3 5 C-3.33 5.66 -3.66 6.32 -4 7 C-3.67 5.02 -3.34 3.04 -3 1 C-2.34 1.33 -1.68 1.66 -1 2 C-0.67 1.34 -0.34 0.68 0 0 Z " fill="#61595E" transform="translate(260,239)"/>
<path d="M0 0 C4.455 1.98 4.455 1.98 9 4 C8.01 4.33 7.02 4.66 6 5 C5.34 4.67 4.68 4.34 4 4 C3.67 4.66 3.34 5.32 3 6 C3 5.34 3 4.68 3 4 C1.68 3.67 0.36 3.34 -1 3 C-0.67 2.01 -0.34 1.02 0 0 Z " fill="#5F5A5C" transform="translate(322,84)"/>
<path d="M0 0 C2.875 0.3125 2.875 0.3125 6 1 C6.66 1.99 7.32 2.98 8 4 C4.86650268 5.04449911 4.01031744 4.93423645 1 4 C0.67 2.68 0.34 1.36 0 0 Z " fill="#5C575A" transform="translate(431,242)"/>
<path d="M0 0 C0.33 0 0.66 0 1 0 C1 3.3 1 6.6 1 10 C0.01 9.67 -0.98 9.34 -2 9 C-2 6.69 -2 4.38 -2 2 C-1.34 2 -0.68 2 0 2 C0 1.34 0 0.68 0 0 Z " fill="#332C2F" transform="translate(99,218)"/>
<path d="M0 0 C0.66 0.33 1.32 0.66 2 1 C2 1.99 2 2.98 2 4 C2.66 4 3.32 4 4 4 C4 5.32 4 6.64 4 8 C1.5625 7.1875 1.5625 7.1875 -1 6 C-1.33 5.01 -1.66 4.02 -2 3 C-1.34 2.01 -0.68 1.02 0 0 Z " fill="#796D70" transform="translate(157,414)"/>
<path d="M0 0 C0.598125 0.20625 1.19625 0.4125 1.8125 0.625 C1.4825 2.275 1.1525 3.925 0.8125 5.625 C-0.1775 5.295 -1.1675 4.965 -2.1875 4.625 C-2.5175 3.965 -2.8475 3.305 -3.1875 2.625 C-3.8475 2.295 -4.5075 1.965 -5.1875 1.625 C-2.1875 -0.375 -2.1875 -0.375 0 0 Z " fill="#50444B" transform="translate(375.1875,313.375)"/>
<path d="M0 0 C0.33 0.99 0.66 1.98 1 3 C0.00390625 4.82421875 0.00390625 4.82421875 -1.4375 6.6875 C-1.91058594 7.31011719 -2.38367188 7.93273437 -2.87109375 8.57421875 C-3.24363281 9.04472656 -3.61617188 9.51523437 -4 10 C-4.99 9.67 -5.98 9.34 -7 9 C-7 8.34 -7 7.68 -7 7 C-5.68 7 -4.36 7 -3 7 C-3.33 5.68 -3.66 4.36 -4 3 C-2.68 2.67 -1.36 2.34 0 2 C0 1.34 0 0.68 0 0 Z " fill="#777074" transform="translate(454,307)"/>
<path d="M0 0 C0.99 0.33 1.98 0.66 3 1 C2.01 2.485 2.01 2.485 1 4 C1.66 4.33 2.32 4.66 3 5 C2.01 5.33 1.02 5.66 0 6 C0 7.65 0 9.3 0 11 C-0.33 11 -0.66 11 -1 11 C-1.02688151 9.35425434 -1.04634123 7.70838587 -1.0625 6.0625 C-1.07410156 5.14597656 -1.08570313 4.22945312 -1.09765625 3.28515625 C-1 1 -1 1 0 0 Z " fill="#31282D" transform="translate(425,240)"/>
<path d="M0 0 C0.33 0.66 0.66 1.32 1 2 C1.99 1.67 2.98 1.34 4 1 C4 2.65 4 4.3 4 6 C3.34 6 2.68 6 2 6 C1.34 7.32 0.68 8.64 0 10 C0 6.7 0 3.4 0 0 Z " fill="#4C4447" transform="translate(297,214)"/>
<path d="M0 0 C0.66 0 1.32 0 2 0 C1.50168276 3.68754757 0.89932357 5.60490662 -2 8 C-3 5 -3 5 -2 2 C-1.34 2 -0.68 2 0 2 C0 1.34 0 0.68 0 0 Z " fill="#5F575C" transform="translate(133,129)"/>
<path d="M0 0 C4.875 4.75 4.875 4.75 6 7 C3.625 6.6875 3.625 6.6875 1 6 C0.34 5.01 -0.32 4.02 -1 3 C-0.67 2.01 -0.34 1.02 0 0 Z " fill="#615A5E" transform="translate(362,113)"/>
<path d="M0 0 C0.66 0.33 1.32 0.66 2 1 C-0.20927127 4.48832306 -2.08597051 5.73058503 -6 7 C-4.60667426 3.63279613 -3.0210714 2.0140476 0 0 Z " fill="#837A7D" transform="translate(86,226)"/>
<path d="M0 0 C2.475 0.495 2.475 0.495 5 1 C4.34 3.64 3.68 6.28 3 9 C1.35173889 6.03312999 0.55728913 3.34373475 0 0 Z " fill="#746B6F" transform="translate(240,162)"/>
<path d="M0 0 C0.66 0.33 1.32 0.66 2 1 C1.67 3.64 1.34 6.28 1 9 C0.34 9 -0.32 9 -1 9 C-0.67 6.03 -0.34 3.06 0 0 Z " fill="#32292E" transform="translate(217,246)"/>
<path d="M0 0 C0.99 0.33 1.98 0.66 3 1 C4.1875 4.0625 4.1875 4.0625 5 7 C0.125 4.375 0.125 4.375 -1 1 C-0.67 0.67 -0.34 0.34 0 0 Z " fill="#585255" transform="translate(383,144)"/>
<path d="M0 0 C1.5 1.3125 1.5 1.3125 3 3 C3 3.99 3 4.98 3 6 C1.68 5.67 0.36 5.34 -1 5 C-1.33 3.68 -1.66 2.36 -2 1 C-1.34 0.67 -0.68 0.34 0 0 Z " fill="#372E33" transform="translate(142,114)"/>
<path d="M0 0 C1.04293785 3.38954801 1.30754089 6.46327974 1 10 C0.01 10.66 -0.98 11.32 -2 12 C-1.85831863 10.56208484 -1.71148957 9.1246763 -1.5625 7.6875 C-1.48128906 6.88699219 -1.40007812 6.08648437 -1.31640625 5.26171875 C-1 3 -1 3 0 0 Z " fill="#847E7F" transform="translate(238,103)"/>
<path d="M0 0 C0.33 1.65 0.66 3.3 1 5 C-1.88437779 3.70700306 -3.87219421 2.34058637 -6 0 C-3 -1 -3 -1 0 0 Z " fill="#61595F" transform="translate(338,101)"/>
<path d="M0 0 C2.31 0.66 4.62 1.32 7 2 C6.67 2.66 6.34 3.32 6 4 C5.34 3.67 4.68 3.34 4 3 C4 3.66 4 4.32 4 5 C3.01 5 2.02 5 1 5 C0.67 3.35 0.34 1.7 0 0 Z " fill="#635D5F" transform="translate(340,412)"/>
<path d="M0 0 C0 0.33 0 0.66 0 1 C-1.670625 1.2165625 -1.670625 1.2165625 -3.375 1.4375 C-6.82142047 1.78372035 -6.82142047 1.78372035 -9 3 C-11.00800456 2.71887936 -13.01014051 2.38932033 -15 2 C-15 1.67 -15 1.34 -15 1 C-9.94997778 -0.03590199 -5.12583611 -0.10251672 0 0 Z " fill="#837982" transform="translate(191,408)"/>
<path d="M0 0 C0.33 0.66 0.66 1.32 1 2 C1.66 2.33 2.32 2.66 3 3 C0.69 4.32 -1.62 5.64 -4 7 C-4.33 5.68 -4.66 4.36 -5 3 C-3.68 3.33 -2.36 3.66 -1 4 C-0.67 2.68 -0.34 1.36 0 0 Z " fill="#60585C" transform="translate(327,378)"/>
<path d="M0 0 C0.66 0.33 1.32 0.66 2 1 C1.49287967 4.71888239 0.88391785 7.73454239 -1 11 C-1.14285714 3.57142857 -1.14285714 3.57142857 0 0 Z " fill="#2E2729" transform="translate(298,242)"/>
<path d="M0 0 C2 2 2 2 2.1953125 3.9453125 C2.13020833 5.96354167 2.06510417 7.98177083 2 10 C0.4375 8.9375 0.4375 8.9375 -1 7 C-0.6875 3.3125 -0.6875 3.3125 0 0 Z " fill="#5C5459" transform="translate(293,176)"/>
<path d="M0 0 C0.33 0.66 0.66 1.32 1 2 C1.66 2.33 2.32 2.66 3 3 C-0.75 6 -0.75 6 -3 6 C-2.42655063 3.13275314 -2.1385485 2.1385485 0 0 Z " fill="#5F5A5D" transform="translate(168,97)"/>
<path d="M0 0 C1.65 0 3.3 0 5 0 C3.84826645 2.46800047 2.95216435 4.04783565 1 6 C0 1.125 0 1.125 0 0 Z " fill="#423A3F" transform="translate(181,82)"/>
<path d="M0 0 C1.67542976 0.28604898 3.34385343 0.61781233 5 1 C4.67 1.99 4.34 2.98 4 4 C3.34 4 2.68 4 2 4 C1.67 4.66 1.34 5.32 1 6 C0.34 4.35 -0.32 2.7 -1 1 C-0.67 0.67 -0.34 0.34 0 0 Z " fill="#625D60" transform="translate(444,316)"/>
<path d="M0 0 C0.99 0 1.98 0 3 0 C2.34 1.32 1.68 2.64 1 4 C0.34 4 -0.32 4 -1 4 C-1 4.66 -1 5.32 -1 6 C-1.66 6 -2.32 6 -3 6 C-2.42655063 3.13275314 -2.1385485 2.1385485 0 0 Z " fill="#585155" transform="translate(156,106)"/>
<path d="M0 0 C1.67542976 0.28604898 3.34385343 0.61781233 5 1 C3.68 2.32 2.36 3.64 1 5 C0.34 3.68 -0.32 2.36 -1 1 C-0.67 0.67 -0.34 0.34 0 0 Z " fill="#654E59" transform="translate(160,102)"/>
<path d="M0 0 C0.99 0 1.98 0 3 0 C2.34 2.31 1.68 4.62 1 7 C0.67 6.01 0.34 5.02 0 4 C-0.66 3.67 -1.32 3.34 -2 3 C-1.34 2.01 -0.68 1.02 0 0 Z " fill="#989498" transform="translate(248,84)"/>
</svg>
